<svg width="81" height="81" viewBox="0 0 81 81" fill="none" xmlns="http://www.w3.org/2000/svg">
<path fill-rule="evenodd" clip-rule="evenodd" d="M11.3738 33.885C10.634 33.885 10.125 34.4629 10.125 35.0325V69.8625C10.125 70.4321 10.634 71.01 11.3738 71.01H62.8425C63.5822 71.01 64.0912 70.4321 64.0912 69.8625V35.0325C64.0912 34.4629 63.5822 33.885 62.8425 33.885H11.3738ZM6.75 35.0325C6.75 32.4971 8.8735 30.51 11.3738 30.51H62.8425C65.3427 30.51 67.4662 32.4971 67.4662 35.0325V69.8625C67.4662 72.3979 65.3427 74.385 62.8425 74.385H11.3738C8.8735 74.385 6.75 72.3979 6.75 69.8625V35.0325Z" fill="#3A86FF" stroke="#3A86FF" stroke-width="0.5" stroke-miterlimit="10" stroke-linecap="round" stroke-linejoin="round"/>
<path fill-rule="evenodd" clip-rule="evenodd" d="M65.7788 47.385H8.40381V44.01H65.7788V47.385Z" fill="#3A86FF" stroke="#3A86FF" stroke-width="0.5" stroke-miterlimit="10"/>
<path fill-rule="evenodd" clip-rule="evenodd" d="M18.0901 10.125C17.337 10.125 16.8413 10.682 16.8413 11.2725V32.0625C16.8413 32.9945 16.0858 33.75 15.1538 33.75C14.2218 33.75 13.4663 32.9945 13.4663 32.0625V11.2725C13.4663 8.69052 15.6031 6.75 18.0901 6.75H69.5588C72.0591 6.75 74.1826 8.73712 74.1826 11.2725V46.3387C74.1826 48.9207 72.0457 50.8612 69.5588 50.8612H66.8251C65.8931 50.8612 65.1376 50.1057 65.1376 49.1737C65.1376 48.2418 65.8931 47.4862 66.8251 47.4862H69.5588C70.3119 47.4862 70.8076 46.9293 70.8076 46.3387V11.2725C70.8076 10.7029 70.2986 10.125 69.5588 10.125H18.0901Z" fill="#3A86FF" stroke="#3A86FF" stroke-width="0.5" stroke-miterlimit="10" stroke-linecap="round" stroke-linejoin="round"/>
<path fill-rule="evenodd" clip-rule="evenodd" d="M72.5288 23.76H15.1538V20.385H72.5288V23.76Z" fill="#3A86FF" stroke="#3A86FF" stroke-width="0.5" stroke-miterlimit="10"/>
</svg>
