<svg width="72" height="64" viewBox="0 0 72 64" fill="none" xmlns="http://www.w3.org/2000/svg">
<g clip-path="url(#clip0_229_734)">
<path d="M70.7011 11.5169L37.4052 0.26169C36.501 -0.0768132 35.5049 -0.0768132 34.6007 0.26169L1.29742 11.5169C0.91621 11.6599 0.587737 11.9159 0.355897 12.2505C0.124056 12.5851 -0.000106894 12.9826 1.09183e-06 13.3896V18.0101C0.0019537 18.5391 0.213529 19.0458 0.58839 19.4192C0.963252 19.7926 1.47084 20.0023 2 20.0023H70C70.5292 20.0023 71.0368 19.7926 71.4116 19.4192C71.7865 19.0458 71.998 18.5391 72 18.0101V13.3896C72 12.9824 71.8756 12.5848 71.6435 12.2502C71.4114 11.9155 71.0826 11.6597 70.7011 11.5169ZM68 16.0031H4V14.8225L36 4.00557L68 14.824V16.0031ZM70.9963 59.9941H68V51.9957C67.9193 50.8604 67.3931 49.803 66.536 49.0539C65.679 48.3048 64.5605 47.9248 63.4244 47.9966H61.9956V24.0015H58.0074V47.9966H46.0074V24.0015H42.0074V47.9966H30.0074V24.0015H26.0074V47.9966H14V24.0015H10V47.9966H8.57122C7.43509 47.9248 6.31662 48.3048 5.45955 49.0539C4.60248 49.803 4.07626 50.8604 3.99557 51.9957V59.9941H1.00074C0.869266 59.9939 0.739046 60.0196 0.617543 60.0699C0.496041 60.1201 0.385643 60.1938 0.292677 60.2867C0.199711 60.3797 0.126005 60.49 0.0757819 60.6115C0.025559 60.733 -0.000193252 60.8632 1.09183e-06 60.9946V62.9942C-0.000193252 63.1257 0.025559 63.2559 0.0757819 63.3773C0.126005 63.4988 0.199711 63.6092 0.292677 63.7021C0.385643 63.7951 0.496041 63.8688 0.617543 63.919C0.739046 63.9692 0.869266 63.9949 1.00074 63.9948H70.9963C71.1278 63.9949 71.258 63.9692 71.3795 63.919C71.501 63.8688 71.6114 63.7951 71.7044 63.7021C71.7973 63.6092 71.871 63.4988 71.9213 63.3773C71.9715 63.2559 71.9972 63.1257 71.9971 62.9942V60.9946C71.9972 60.8632 71.9715 60.733 71.9213 60.6115C71.871 60.49 71.7973 60.3797 71.7044 60.2867C71.6114 60.1938 71.501 60.1201 71.3795 60.0699C71.258 60.0196 71.1278 59.9939 70.9963 59.9941ZM63.9956 59.9941H8V52.1551C8.16888 52.0432 8.36878 51.9874 8.57122 51.9957H63.4288C63.6313 51.9871 63.8313 52.0429 64 52.1551L63.9956 59.9941Z" fill="#0176F4"/>
</g>
<defs>
<clipPath id="clip0_229_734">
<rect width="72" height="64" fill="white"/>
</clipPath>
</defs>
</svg>
